<svg xmlns="http://www.w3.org/2000/svg" width="95" height="34" fill="none" viewBox="0 0 95 34"><path fill="#333" d="M47.297 15.715c-.655-.252-1.513-.327-2.446-.327h-5.195v-1.614h8.927V11H36v12.003h8.523c1.186 0 2.068-.1 2.724-.353 1.387-.53 2.32-1.816 2.32-3.505 0-1.715-.883-2.9-2.27-3.43m-1.815 4.161c-.202.076-.48.101-.833.101h-4.993v-1.916h4.993c.404 0 .732.025.984.15.302.152.454.43.454.783s-.177.73-.606.882M59.819 11h-5.346l-4.917 12.003h4.135l.681-1.74h5.548l.706 1.74h4.11zm-4.54 7.615 1.741-4.841h.277l1.74 4.841zm14.163-.075v4.463h-3.656V11h3.656v4.388h5.876V11h3.656v12.003h-3.656V18.54zm15.32-.076v4.54h-3.656V11h3.656v4.514h1.009L90.184 11h4.589l-5.85 5.75L95 23.002h-4.867l-4.362-4.539z"/><path fill="#FFDD2D" d="M0 4h29v13.585c0 3.739-1.995 7.194-5.232 9.063L14.5 32l-9.268-5.352A10.47 10.47 0 0 1 0 17.585z"/><path fill="#333" fill-rule="evenodd" d="M8 11v4.508c.616-.696 1.737-1.167 3.019-1.167h1.392v5.24c0 1.394-.379 2.759-.94 3.43h6.057c-.561-.672-.94-2.035-.94-3.428v-5.242h1.393c1.282 0 2.403.47 3.019 1.167V11z" clip-rule="evenodd"/></svg>